<svg width="15" height="17" viewBox="0 0 15 17" fill="none" xmlns="http://www.w3.org/2000/svg">
<path d="M2.84375 7.34375C2.84375 5.22275 2.84375 4.1615 3.503 3.503C4.1615 2.84375 5.22275 2.84375 7.34375 2.84375H9.59375C11.7148 2.84375 12.776 2.84375 13.4345 3.503C14.0938 4.1615 14.0938 5.22275 14.0938 7.34375V11.0938C14.0938 13.2148 14.0938 14.276 13.4345 14.9345C12.776 15.5938 11.7148 15.5938 9.59375 15.5938H7.34375C5.22275 15.5938 4.1615 15.5938 3.503 14.9345C2.84375 14.276 2.84375 13.2148 2.84375 11.0938V7.34375Z" stroke="white" stroke-width="1.1875"/>
<path d="M2.84375 13.3438C2.24701 13.3437 1.67472 13.1067 1.25276 12.6847C0.830803 12.2628 0.59375 11.6905 0.59375 11.0938V6.59375C0.59375 3.7655 0.59375 2.351 1.47275 1.47275C2.35175 0.5945 3.7655 0.59375 6.59375 0.59375H9.59375C10.1905 0.59375 10.7628 0.830803 11.1847 1.25276C11.6067 1.67472 11.8437 2.24701 11.8438 2.84375" stroke="white" stroke-width="1.1875"/>
</svg>
