<svg width="16" height="16" viewBox="0 0 16 16" fill="none" xmlns="http://www.w3.org/2000/svg">
<path d="M12.9563 7.83746H12.9551C12.9401 7.53121 12.6151 7.24496 12.0538 7.07621C10.8526 6.71496 9.52006 6.50371 8.00006 6.49121C6.48131 6.50371 5.14881 6.71496 3.94631 7.07621C3.38506 7.24496 3.06256 7.53121 3.04631 7.83746H3.04381V14.0975C3.03006 14.4475 3.42131 14.8225 4.32631 15.0787C5.26131 15.3437 6.52631 15.515 7.99881 15.515C9.47131 15.515 10.7363 15.3437 11.6713 15.0787C12.6201 14.81 13.0038 14.4112 12.9488 14.0475H12.9538V7.83746H12.9563ZM3.04381 7.92871H12.9563H3.04381Z" fill="#E2A610"/>
<path d="M8.98741 13.5305L8.42616 12.208C8.58837 12.1297 8.7252 12.0072 8.82094 11.8546C8.91668 11.7021 8.96745 11.5256 8.96741 11.3455C8.96741 10.8155 8.53741 10.3867 8.00866 10.3867C7.47991 10.3867 7.04991 10.8167 7.04991 11.3455C7.04991 11.7017 7.24491 12.013 7.53366 12.178L7.01116 13.5392C6.94491 13.7117 7.07241 13.8955 7.25616 13.8955H8.74616C8.93366 13.8955 9.05991 13.703 8.98741 13.5305Z" fill="#4E342E"/>
<path d="M8.93369 13.4075H7.05994L7.00994 13.5388C6.94369 13.7113 7.07119 13.895 7.25494 13.895H8.74494C8.93369 13.895 9.05994 13.7025 8.98619 13.53L8.93369 13.4075ZM7.61869 11.925C7.64119 11.86 7.61744 11.79 7.56244 11.75C7.48744 11.695 7.38619 11.5975 7.32244 11.4425C7.08994 10.8825 7.36619 10.6338 7.36619 10.6338C7.26613 10.7233 7.18613 10.8329 7.13141 10.9555C7.07669 11.0781 7.0485 11.2108 7.04869 11.345C7.04869 11.7013 7.24369 12.0125 7.53244 12.1775L7.61869 11.925ZM8.68244 10.6625C8.68244 10.6625 8.95744 11.215 8.64244 11.5688C8.53494 11.6888 8.44369 11.7525 8.37619 11.7838C8.30994 11.815 8.27994 11.8938 8.31119 11.96L8.42744 12.205C8.58964 12.1267 8.72648 12.0043 8.82222 11.8517C8.91796 11.6991 8.96873 11.5227 8.96869 11.3425C8.96619 10.9363 8.68244 10.6625 8.68244 10.6625Z" fill="#9E740B"/>
<path d="M11.8425 6.99328C10.7038 6.66203 9.44003 6.46953 8.00003 6.45703C6.56003 6.46828 5.29628 6.66203 4.15753 6.99203C3.01628 7.32328 2.90253 8.14953 4.51878 8.59203C5.40503 8.83453 6.60503 8.99078 8.00003 8.99078C9.39503 8.99078 10.595 8.83453 11.4813 8.59203C13.0975 8.15078 12.9838 7.32328 11.8425 6.99328Z" fill="#FDD835"/>
<path d="M11.5187 7.77605C11.5187 7.77605 11.4725 7.99105 10.8662 7.99105C10.26 7.99105 10.1312 7.77605 10.1312 7.77605V5.0198C10.1312 3.7673 9.17498 2.7498 7.99873 2.7498C6.82248 2.7498 5.86623 3.76855 5.86623 5.0198V7.7773C5.86623 7.7773 5.60248 7.9923 5.12248 7.9923C4.64248 7.9923 4.47998 7.7773 4.47998 7.7773V5.0198C4.47998 3.0023 6.05873 1.3623 7.99873 1.3623C9.93873 1.3623 11.5175 3.00355 11.5175 5.0198V7.77605H11.5187Z" fill="#84B0C1" stroke="#84B0C1" stroke-width="0.24475" stroke-miterlimit="10"/>
<path d="M6.41366 2.69478C5.77116 3.07728 5.67241 3.33603 5.49366 3.45478C5.36116 3.54228 5.18491 3.47228 5.29991 3.16853C5.39866 2.90853 5.63616 2.41603 6.22866 2.03728C7.24866 1.38478 8.12866 1.41478 8.08116 1.91353C8.04116 2.35478 7.09866 2.28728 6.41366 2.69478Z" fill="#B9E4EA"/>
</svg>
